<svg id="visual" viewBox="0 0 900 200" width="900" height="200" xmlns="http://www.w3.org/2000/svg"
     xmlns:xlink="http://www.w3.org/1999/xlink" version="1.1">
    <rect x="0" y="0" width="900" height="200" fill="#002233"></rect>
    <path d="M0 169L21.5 168.8C43 168.7 86 168.3 128.8 162C171.7 155.7 214.3 143.3 257.2 139.3C300 135.3 343 139.7 385.8 143.7C428.7 147.7 471.3 151.3 514.2 148.2C557 145 600 135 642.8 131.2C685.7 127.3 728.3 129.7 771.2 136.2C814 142.7 857 153.3 878.5 158.7L900 164L900 201L878.5 201C857 201 814 201 771.2 201C728.3 201 685.7 201 642.8 201C600 201 557 201 514.2 201C471.3 201 428.7 201 385.8 201C343 201 300 201 257.2 201C214.3 201 171.7 201 128.8 201C86 201 43 201 21.5 201L0 201Z"
          fill="#0066FF" stroke-linecap="round" stroke-linejoin="miter"></path>
</svg>